<?xml version="1.0" encoding="UTF-8"?>
<!DOCTYPE svg PUBLIC "-//W3C//DTD SVG 1.1 Tiny//EN" "http://www.w3.org/Graphics/SVG/1.1/DTD/svg11-tiny.dtd">
<svg xmlns="http://www.w3.org/2000/svg" baseProfile="tiny" height="100%" version="1.0" viewBox="0 0 64 64" width="100%">
<metadata/>
<g style="display:inline">
<path d="M 56.200001,30.9 C 56.200001,46.300799 44.283201,58.799999 29.6,58.799999 C 14.9168,58.799999 3,46.300799 3,30.9 C 3,15.4992 14.9168,3 29.6,3 C 44.283201,3 56.200001,15.4992 56.200001,30.9 z " style="fill:#ffffff;fill-opacity:1;fill-rule:evenodd;stroke:#ff0000;stroke-width:6;stroke-linecap:round;stroke-linejoin:miter;stroke-miterlimit:4;stroke-opacity:1" transform="translate(2,0.2000008)"/>
<path d="M 19.220703,20.739758 C 18.6582,20.739762 18.215818,20.890153 17.893555,21.19093 C 17.571287,21.491715 17.410154,21.905777 17.410156,22.433117 C 17.410154,22.960463 17.571287,23.374525 17.893555,23.675305 C 18.215818,23.976087 18.6582,24.126478 19.220703,24.126477 C 19.783199,24.126478 20.226558,23.97511 20.550781,23.672375 C 20.874995,23.369642 21.037104,22.956557 21.037109,22.433117 C 21.037104,21.905777 20.875971,21.491715 20.553711,21.19093 C 20.23144,20.890153 19.787105,20.739762 19.220703,20.739758 L 19.220703,20.739758 z M 18.037109,20.235852 C 17.529295,20.110857 17.133787,19.874529 16.850586,19.526867 C 16.567382,19.179217 16.42578,18.755389 16.425781,18.255383 C 16.42578,17.556172 16.674803,17.003438 17.172852,16.59718 C 17.670896,16.190939 18.353513,15.987814 19.220703,15.987805 C 20.091792,15.987814 20.775385,16.190939 21.271484,16.59718 C 21.767572,17.003438 22.015618,17.556172 22.015625,18.255383 C 22.015618,18.755389 21.874017,19.179217 21.59082,19.526867 C 21.307611,19.874529 20.914057,20.110857 20.410156,20.235852 C 20.980463,20.368669 21.424799,20.628434 21.743164,21.015149 C 22.061517,21.401871 22.220696,21.874527 22.220703,22.433117 C 22.220696,23.280775 21.961908,23.931165 21.444336,24.384289 C 20.926752,24.837414 20.185542,25.063977 19.220703,25.063977 C 18.255857,25.063977 17.514646,24.837414 16.99707,24.384289 C 16.479491,23.931165 16.220702,23.280775 16.220703,22.433117 C 16.220702,21.874527 16.380858,21.401871 16.701172,21.015149 C 17.021483,20.628434 17.466795,20.368669 18.037109,20.235852 L 18.037109,20.235852 z M 17.603516,18.366711 C 17.603513,18.819842 17.745115,19.173357 18.02832,19.427258 C 18.311521,19.681169 18.708981,19.808122 19.220703,19.808117 C 19.728511,19.808122 20.125972,19.681169 20.413086,19.427258 C 20.70019,19.173357 20.843745,18.819842 20.84375,18.366711 C 20.843745,17.913593 20.70019,17.560078 20.413086,17.306164 C 20.125972,17.052266 19.728511,16.925313 19.220703,16.925305 C 18.708981,16.925313 18.311521,17.052266 18.02832,17.306164 C 17.745115,17.560078 17.603513,17.913593 17.603516,18.366711 L 17.603516,18.366711 z M 26.861328,16.925305 C 26.25195,16.925313 25.793943,17.225117 25.487305,17.824719 C 25.180662,18.424335 25.027342,19.325701 25.027344,20.528821 C 25.027342,21.728042 25.180662,22.627456 25.487305,23.227063 C 25.793943,23.826673 26.25195,24.126478 26.861328,24.126477 C 27.474605,24.126478 27.934565,23.826673 28.241211,23.227063 C 28.547846,22.627456 28.701166,21.728042 28.701172,20.528821 C 28.701166,19.325701 28.547846,18.424335 28.241211,17.824719 C 27.934565,17.225117 27.474605,16.925313 26.861328,16.925305 L 26.861328,16.925305 z M 26.861328,15.987805 C 27.841792,15.987814 28.590815,16.375509 29.108398,17.150891 C 29.62597,17.926288 29.884759,19.052264 29.884766,20.528821 C 29.884759,22.00148 29.62597,23.125502 29.108398,23.900891 C 28.590815,24.676282 27.841792,25.063977 26.861328,25.063977 C 25.880857,25.063977 25.131834,24.676282 24.614258,23.900891 C 24.096679,23.125502 23.83789,22.00148 23.837891,20.528821 C 23.83789,19.052264 24.096679,17.926288 24.614258,17.150891 C 25.131834,16.375509 25.880857,15.987814 26.861328,15.987805 L 26.861328,15.987805 z " style="" transform="matrix(2.5345976,0,0,2.983215,-26.745857,-29.771232)"/>
</g>
</svg>
