<?xml version="1.0" encoding="UTF-8" standalone="no"?>
<!-- Created with Inkscape (http://www.inkscape.org/) -->
<svg
   xmlns:dc="http://purl.org/dc/elements/1.1/"
   xmlns:cc="http://web.resource.org/cc/"
   xmlns:rdf="http://www.w3.org/1999/02/22-rdf-syntax-ns#"
   xmlns:svg="http://www.w3.org/2000/svg"
   xmlns="http://www.w3.org/2000/svg"
   xmlns:sodipodi="http://sodipodi.sourceforge.net/DTD/sodipodi-0.dtd"
   xmlns:inkscape="http://www.inkscape.org/namespaces/inkscape"
   width="100%"
   height="100%"
   viewBox="0 0 64 64"
   id="svg2160"
   sodipodi:version="0.32"
   inkscape:version="0.45.1"
   sodipodi:docbase="E:\Develop\Python\Proj\S60\icons\svg_inp"
   sodipodi:docname="PyGpsLog.svg"
   inkscape:output_extension="org.inkscape.output.svg.inkscape"
   version="1.0">
  <defs
     id="defs2162" />
  <sodipodi:namedview
     id="base"
     pagecolor="#ffffff"
     bordercolor="#666666"
     borderopacity="1.0"
     inkscape:pageopacity="0.0"
     inkscape:pageshadow="2"
     inkscape:zoom="10"
     inkscape:cx="32"
     inkscape:cy="32"
     inkscape:current-layer="layer1"
     showgrid="true"
     inkscape:document-units="px"
     inkscape:grid-bbox="true"
     inkscape:window-width="849"
     inkscape:window-height="838"
     inkscape:window-x="6"
     inkscape:window-y="82"
     showguides="true"
     inkscape:guide-bbox="true" />
  <metadata
     id="metadata2165">
    <rdf:RDF>
      <cc:Work
         rdf:about="">
        <dc:format>image/svg+xml</dc:format>
        <dc:type
           rdf:resource="http://purl.org/dc/dcmitype/StillImage" />
        <dc:creator>
          <cc:Agent>
            <dc:title>Thomas Johler</dc:title>
          </cc:Agent>
        </dc:creator>
        <dc:subject>
          <rdf:Bag>
            <rdf:li>S60 Icon</rdf:li>
          </rdf:Bag>
        </dc:subject>
        <dc:description>Width and height as percent.
Absolute size as viewbox!</dc:description>
      </cc:Work>
    </rdf:RDF>
  </metadata>
  <g
     id="layer1"
     inkscape:label="Layer 1"
     inkscape:groupmode="layer"
     style="display:inline">
    <path
       style="fill:#0000f0;fill-opacity:1;fill-rule:evenodd;stroke:#0000f0;stroke-width:0.69999999;stroke-linecap:round;stroke-linejoin:miter;stroke-miterlimit:4;stroke-opacity:1"
       d="M 59.299999,31.950001 C 59.299999,47.654401 46.979999,60.400002 31.799999,60.400002 C 16.619999,60.400002 4.2999992,47.654401 4.2999992,31.950001 C 4.2999992,16.2456 16.619999,3.5 31.799999,3.5 C 46.979999,3.5 59.299999,16.2456 59.299999,31.950001 z "
       id="path2157" />
    <path
       style="fill:#67cd7a;fill-rule:evenodd;stroke:#67cd7a;stroke-width:1px;stroke-linecap:butt;stroke-linejoin:miter;stroke-opacity:1;fill-opacity:1"
       d="M 5,28 C 3.1662461,28 5.2040177,27.816071 5.4,28.6 C 5.6099666,29.439866 10.369242,29 11.5,29 C 12.333333,29 14,29.833333 14,29 C 14,28.893894 20.136003,38.9 20.8,38.9 C 23.492231,38.9 24.828266,39.739195 25.8,37.9 C 27.702051,34.3 27.149154,26 29,26 C 29.471405,26 32.928595,32.9 33.4,32.9 C 38.96735,21.424116 32.131365,25.567208 36.5,17 C 37.670096,15.829904 37,11.572011 37,10 C 37,7.1583351 38,8.6777648 38,7 C 38,5.308752 38.462213,4.7219757 39,4.6 C 38.870131,4.0805253 35.947285,5.4263573 35.8,5.5 C 34.489277,6.1553615 32.015161,3.5886296 30.8,4.5 C 26.808393,6.7142202 26.186663,6.003584 21.7,6.7 C 20.772262,6.7 20.2,6.7300895 20.2,7.8 C 16.69716,9.2180929 16.854804,10.339876 14.7,11.3 C 14.6,11.433333 14.5,11.566667 14.4,11.7 C 13.916096,12.345205 12.392858,12.914285 12,13.7 C 11.663083,14.373835 10.666958,14.983219 10.4,15.5 C 11.106002,18.941621 9.4392429,19.225789 7.4,21.8 C 6.4652425,23.902075 7.1847173,26.534097 5,27.4 C 4.8097184,28.161126 4.9124282,27.982486 4.5,27.9"
       id="path2161"
       sodipodi:nodetypes="cssssssccsscsccccsscccc" />
    <path
       style="fill:#67cd7a;fill-rule:evenodd;stroke:#67cd7a;stroke-width:1px;stroke-linecap:butt;stroke-linejoin:miter;stroke-opacity:1;fill-opacity:1"
       d="M 45,21 C 44.186085,22.827449 44,23.466494 44,26 C 44,26.166667 43.4,25.661111 43.4,26.5 C 43.4,26.666667 43.4,26.833333 43.4,27 C 44.166667,27 44,26.8 44,27.5 C 44,28.67063 46,27.208123 46,29 C 46,30.688227 47.172968,28 47.5,28 C 51.138316,28 49.4,28.075549 49.4,27 C 49.4,26.504464 48.309559,26.886948 48,26.5 C 47.529327,25.911659 48.177,24 47,24 C 46.666255,24 47.500618,23 46.5,23 C 45.972954,23 46,22.027046 46,21.5 C 46,20.914642 45.300594,21 45,21 z "
       id="path3134" />
    <path
       style="fill:#67cd7a;fill-rule:evenodd;stroke:#67cd7a;stroke-width:1px;stroke-linecap:butt;stroke-linejoin:miter;stroke-opacity:1;fill-opacity:1"
       d="M 43.4,33 C 43.4,32.605357 44.212329,35 45,35 C 47.186273,35 44.792931,37 47,37 C 47.372678,37 47.666667,37.333333 48,37.5 C 49.072925,38.036463 48.97358,41.51321 53,39.5 C 53.281617,39.359192 50.80205,38 52.5,38 C 52.899047,38 53.663774,33 52.4,33 C 51.740266,33 52.183189,32 51,32 C 48.319912,32 49.762535,31 47,31 C 43.389481,31 45.136342,31.553048 43.4,33 C 43.184551,33.179541 44.599492,33.699915 43.4,33.5 C 43.235601,33.4726 43.4,33.166667 43.4,33 z "
       id="path3136" />
    <path
       style="fill:#67cd7a;fill-rule:evenodd;stroke:#67cd7a;stroke-width:1px;stroke-linecap:butt;stroke-linejoin:miter;stroke-opacity:1;fill-opacity:1"
       d="M 27,45 C 23.154594,44.359099 30.451271,44 31.4,44 C 32.567575,44 35,43.897335 35,45 C 35,45.687184 36.514087,45.014087 37,45.5 C 37.820567,46.320567 40,45.894365 40,47 C 40,48 42,47 43,47 C 44.846754,47 49,45.961158 49,48.5 C 49,48.995536 50,49.104464 50,49.6 C 50,52.034619 49,49.800582 49,53 C 49,55.345777 45,53.979223 45,56 C 45,57 43,56 42,56 C 39.166667,56 36.333333,56 33.5,56 C 32.597931,56 29,54.952846 29,54 C 29,53.603859 28,53.512489 28,52.6 C 28,52.21127 27.242838,52.303547 27,52 C 25.814102,50.517627 26,53.35075 26,49.6 C 26,47.175641 25,48.49 25,47.6 C 25,47.258382 26,47.947163 26,47 C 26,46.022525 27,46.17214 27,45 z "
       id="path3138" />
    <path
       style="fill:#ffffff;fill-opacity:1;fill-rule:evenodd;stroke:#ffffff;stroke-width:1px;stroke-linecap:butt;stroke-linejoin:miter;stroke-opacity:1"
       d="M 38.6,37.96982 C 38.6,36.83215 37.5,31.28408 37.5,29.46982 C 37.5,27.75061 38.677228,30.46982 38.9,30.46982 C 41.225899,30.46982 39.756078,31.46982 41.5,31.46982 C 42.34705,31.46982 43.5,35.461317 43.5,36.46982 C 43.5,37.808367 43.015384,40.46982 41.9,40.46982 C 41.438102,41.624566 41.859011,41.46982 41,41.46982 C 38.275489,41.46982 40.775134,42.46982 37.5,42.46982 C 36.860763,42.46982 36.470118,43.46982 35,43.46982 C 33.931201,43.46982 31.821441,45.46982 29.5,45.46982 C 27.241844,45.46982 27.859751,43.069405 26.9,41.46982 C 26.567581,40.915789 26.055267,36.46982 27,36.46982 C 27.600925,36.46982 31.975082,40.894738 32.4,40.46982 C 37.612577,38.782037 28.276428,36.673343 38.6,37.96982 z "
       id="path3140"
       sodipodi:nodetypes="csssscsssssscc" />
    <path
       sodipodi:nodetypes="cssssccsscc"
       id="path3142"
       d="M 43.193211,19.434258 C 42.602479,20.406538 37.761741,23.519223 36.81969,25.069732 C 35.926994,26.53901 36.332851,23.603835 36.142465,23.488162 C 34.154697,22.280443 35.930088,22.189021 34.439691,21.283493 C 33.715782,20.843664 34.803021,16.83377 35.326684,15.971879 C 36.021721,14.827925 36.01784,19.70502 36.971073,20.284181 C 40.687012,19.550438 37.73282,12.968269 41.869913,17.859625 C 42.41622,18.191547 44.969323,13.639765 46.22572,14.403121 C 47.139141,14.958092 43.280688,7.644334 45.264646,8.849737 C 47.19452,10.02228 49.220031,21.352884 49.209676,23.218276 C 47.339709,27.983203 44.033331,20.062883 43.193211,19.434258 z "
       style="fill:#ffffff;fill-opacity:1;fill-rule:evenodd;stroke:#ffffff;stroke-width:1px;stroke-linecap:butt;stroke-linejoin:miter;stroke-opacity:1" />
    <path
       style="fill:#a48f20;fill-rule:evenodd;stroke:#776c32;stroke-width:1px;stroke-linecap:butt;stroke-linejoin:miter;stroke-opacity:1;fill-opacity:1"
       d="M 12,25.5 C 13.89424,25.490821 13.643068,24 15,24 C 15.017668,24 15.917845,23 16.5,23 C 16.762882,23 16.89315,22 18.5,22 C 19.726297,22 25,21.520191 25,22.6 C 25,23.452241 26,22.568624 26,24 C 26,24.154326 28,23.480785 28,25 C 28,26.681944 27,25.380387 27,27 C 27,28.008814 27.370196,28 25,28 C 22.660794,28 20.988349,29 18.4,29 C 17.366047,29 15,28.463397 15,29.6 C 15,29.969674 13.542408,28.808482 12,28.5 C 11.83657,28.467314 12,28.166667 12,28 C 12,27.640989 11,27.959011 11,27.6 C 11,27.490422 10,27.926743 10,27 C 10,25.333333 11,28.166667 11,26.5 C 11,25.876169 11.484757,26.015243 12,25.5 z "
       id="path3144" />
    <path
       style="fill:none;fill-opacity:1;fill-rule:evenodd;stroke:#ff0000;stroke-width:1.5;stroke-linecap:round;stroke-linejoin:miter;stroke-miterlimit:4;stroke-opacity:1"
       d="M 52.999999,29 C 52.999999,33.0848 49.684799,36.4 45.599998,36.4 C 41.515198,36.4 38.199998,33.0848 38.199998,29 C 38.199998,24.9152 41.515198,21.6 45.599998,21.6 C 49.684799,21.6 52.999999,24.9152 52.999999,29 z "
       id="path3148" />
    <path
       style="fill:none;fill-rule:evenodd;stroke:#ff0000;stroke-width:1;stroke-linecap:butt;stroke-linejoin:miter;stroke-opacity:1;stroke-miterlimit:4;stroke-dasharray:none"
       d="M 45.5,16.5 C 45.5,40.5 45.5,40.5 45.5,40.5"
       id="path3150" />
    <path
       id="path3152"
       d="M 57.499975,28.475733 C 33.500025,28.524267 33.500025,28.524267 33.500025,28.524267"
       style="fill:none;fill-rule:evenodd;stroke:#ff0000;stroke-width:1;stroke-linecap:butt;stroke-linejoin:miter;stroke-miterlimit:4;stroke-dasharray:none;stroke-opacity:1" />
    <g
       id="g3156"
       transform="matrix(0.343878,0.1228674,-0.3982604,0.244892,26.461796,2.0123736)">
      <path
         d="M 18.945,12.405 C 18.945,8.821 19.906,6.871 25.213,5.942 C 28.816,5.311 33.435,5.232 37.744,5.942 C 41.147,6.504 44.013,9.039 44.013,12.405 L 44.013,24.23 C 44.013,27.698 41.232,30.54 37.744,30.54 L 25.212,30.54 C 20.96,30.54 17.375,34.166 17.375,38.265 L 17.375,43.939 L 13.066,43.939 C 9.422,43.939 7.3,41.311 6.408,37.634 C 5.206,32.694 5.257,29.75 6.408,25.019 C 7.406,20.892 10.596,18.714 14.241,18.714 L 18.944,18.714 L 31.48,18.714 L 31.48,17.135 L 18.945,17.135 L 18.945,12.405 L 18.945,12.405 z "
         id="path3158"
         style="fill:#366994" />
      <path
         d="M 44.012,50.248 C 44.012,53.832 40.901,55.646 37.743,56.553 C 32.994,57.918 29.182,57.709 25.212,56.553 C 21.897,55.587 18.944,53.614 18.944,50.248 L 18.944,38.422 C 18.944,35.02 21.781,32.112 25.212,32.112 L 37.743,32.112 C 41.917,32.112 45.58,28.506 45.58,24.23 L 45.58,18.714 L 50.279,18.714 C 53.927,18.714 55.646,21.425 56.547,25.019 C 57.8,30.01 57.856,33.743 56.547,37.634 C 55.279,41.412 53.923,43.939 50.279,43.939 L 44.011,43.939 L 31.48,43.939 L 31.48,45.517 L 44.011,45.517 L 44.011,50.248 L 44.012,50.248 z "
         id="path3160"
         style="fill:#e7b530" />
      <path
         d="M 22.079,11.62 C 22.079,10.31 23.128,9.252 24.429,9.252 C 25.724,9.252 26.778,10.31 26.778,11.62 C 26.778,12.925 25.724,13.983 24.429,13.983 C 23.128,13.983 22.079,12.925 22.079,11.62 z "
         id="path3162"
         style="fill:#ffffff" />
      <path
         d="M 36.179,51.033 C 36.179,49.728 37.233,48.669 38.529,48.669 C 39.828,48.669 40.879,49.729 40.879,51.033 C 40.879,52.342 39.828,53.4 38.529,53.4 C 37.232,53.4 36.179,52.342 36.179,51.033 z "
         id="path3164"
         style="fill:#ffffff" />
    </g>
  </g>
</svg>
