<?xml version="1.0" encoding="UTF-8"?>
<!DOCTYPE svg PUBLIC "-//W3C//DTD SVG 1.1 Tiny//EN" "http://www.w3.org/Graphics/SVG/1.1/DTD/svg11-tiny.dtd">
<svg xmlns="http://www.w3.org/2000/svg" baseProfile="tiny" height="100%" version="1.0" viewBox="0 0 64 64" width="100%">
<metadata/>
<g style="display:inline">
<g>
<path d="M 58.65,31.800001 C 58.65,47.504401 46.33,60.250002 31.15,60.250002 C 15.97,60.250002 3.65,47.504401 3.65,31.800001 C 3.65,16.0956 15.97,3.35 31.15,3.35 C 46.33,3.35 58.65,16.0956 58.65,31.800001 z " style="fill:#0000f0;fill-opacity:1;fill-rule:evenodd;stroke:#0000f0;stroke-width:0.69999999;stroke-linecap:round;stroke-linejoin:miter;stroke-miterlimit:4;stroke-opacity:1;display:inline"/>
<path d="M 4.350001,27.85 C 2.516247,27.85 4.554019,27.666071 4.750001,28.45 C 4.959968,29.289866 9.719243,28.85 10.850001,28.85 C 11.683334,28.85 13.350001,29.683333 13.350001,28.85 C 13.350001,28.743894 19.486004,38.75 20.150001,38.75 C 22.842232,38.75 24.178267,39.589195 25.150001,37.75 C 27.052052,34.15 26.499155,25.85 28.350001,25.85 C 28.821406,25.85 32.278596,32.75 32.750001,32.75 C 38.317351,21.274116 31.481366,25.417208 35.850001,16.85 C 37.020097,15.679904 36.350001,11.422011 36.350001,9.85 C 36.350001,7.008335 37.350001,8.527765 37.350001,6.85 C 37.350001,5.158752 37.812214,4.571976 38.350001,4.45 C 38.220132,3.930525 35.297286,5.276357 35.150001,5.35 C 33.839278,6.005361 31.365162,3.43863 30.150001,4.35 C 26.158394,6.56422 25.536664,5.853584 21.050001,6.55 C 20.122263,6.55 19.550001,6.580089 19.550001,7.65 C 16.047161,9.068093 16.204805,10.189876 14.050001,11.15 C 13.950001,11.283333 13.850001,11.416667 13.750001,11.55 C 13.266097,12.195205 11.742859,12.764285 11.350001,13.55 C 11.013084,14.223835 10.016959,14.833219 9.750001,15.35 C 10.456003,18.791621 8.789244,19.075789 6.750001,21.65 C 5.815244,23.752075 6.534718,26.384097 4.350001,27.25 C 4.159719,28.011126 4.262429,27.832486 3.850001,27.75" style="fill:#67cd7a;fill-opacity:1;fill-rule:evenodd;stroke:#67cd7a;stroke-width:1px;stroke-linecap:butt;stroke-linejoin:miter;stroke-opacity:1;display:inline"/>
<path d="M 44.350001,20.85 C 43.536086,22.677449 43.350001,23.316494 43.350001,25.85 C 43.350001,26.016667 42.750001,25.511111 42.750001,26.35 C 42.750001,26.516667 42.750001,26.683333 42.750001,26.85 C 43.516668,26.85 43.350001,26.65 43.350001,27.35 C 43.350001,28.52063 45.350001,27.058123 45.350001,28.85 C 45.350001,30.538227 46.522969,27.85 46.850001,27.85 C 50.488317,27.85 48.750001,27.925549 48.750001,26.85 C 48.750001,26.354464 47.65956,26.736948 47.350001,26.35 C 46.879328,25.761659 47.527001,23.85 46.350001,23.85 C 46.016256,23.85 46.850619,22.85 45.850001,22.85 C 45.322955,22.85 45.350001,21.877046 45.350001,21.35 C 45.350001,20.764642 44.650595,20.85 44.350001,20.85 z " style="fill:#67cd7a;fill-opacity:1;fill-rule:evenodd;stroke:#67cd7a;stroke-width:1px;stroke-linecap:butt;stroke-linejoin:miter;stroke-opacity:1;display:inline"/>
<path d="M 42.750001,32.85 C 42.750001,32.455357 43.56233,34.85 44.350001,34.85 C 46.536274,34.85 44.142932,36.85 46.350001,36.85 C 46.722679,36.85 47.016668,37.183333 47.350001,37.35 C 48.422926,37.886463 48.323581,41.36321 52.350001,39.35 C 52.631618,39.209192 50.152051,37.85 51.850001,37.85 C 52.249048,37.85 53.013775,32.85 51.750001,32.85 C 51.090267,32.85 51.53319,31.85 50.350001,31.85 C 47.669913,31.85 49.112536,30.85 46.350001,30.85 C 42.739482,30.85 44.486343,31.403048 42.750001,32.85 C 42.534552,33.029541 43.949493,33.549915 42.750001,33.35 C 42.585602,33.3226 42.750001,33.016667 42.750001,32.85 z " style="fill:#67cd7a;fill-opacity:1;fill-rule:evenodd;stroke:#67cd7a;stroke-width:1px;stroke-linecap:butt;stroke-linejoin:miter;stroke-opacity:1;display:inline"/>
<path d="M 26.350001,44.85 C 22.504595,44.209099 29.801272,43.85 30.750001,43.85 C 31.917576,43.85 34.350001,43.747335 34.350001,44.85 C 34.350001,45.537184 35.864088,44.864087 36.350001,45.35 C 37.170568,46.170567 39.350001,45.744365 39.350001,46.85 C 39.350001,47.85 41.350001,46.85 42.350001,46.85 C 44.196755,46.85 48.350001,45.811158 48.350001,48.35 C 48.350001,48.845536 49.350001,48.954464 49.350001,49.45 C 49.350001,51.884619 48.350001,49.650582 48.350001,52.85 C 48.350001,55.195777 44.350001,53.829223 44.350001,55.85 C 44.350001,56.85 42.350001,55.85 41.350001,55.85 C 38.516668,55.85 35.683334,55.85 32.850001,55.85 C 31.947932,55.85 28.350001,54.802846 28.350001,53.85 C 28.350001,53.453859 27.350001,53.362489 27.350001,52.45 C 27.350001,52.06127 26.592839,52.153547 26.350001,51.85 C 25.164103,50.367627 25.350001,53.20075 25.350001,49.45 C 25.350001,47.025641 24.350001,48.34 24.350001,47.45 C 24.350001,47.108382 25.350001,47.797163 25.350001,46.85 C 25.350001,45.872525 26.350001,46.02214 26.350001,44.85 z " style="fill:#67cd7a;fill-opacity:1;fill-rule:evenodd;stroke:#67cd7a;stroke-width:1px;stroke-linecap:butt;stroke-linejoin:miter;stroke-opacity:1;display:inline"/>
<path d="M 37.950001,37.81982 C 37.950001,36.68215 36.850001,31.13408 36.850001,29.31982 C 36.850001,27.60061 38.027229,30.31982 38.250001,30.31982 C 40.5759,30.31982 39.106079,31.31982 40.850001,31.31982 C 41.697051,31.31982 42.850001,35.311317 42.850001,36.31982 C 42.850001,37.658367 42.365385,40.31982 41.250001,40.31982 C 40.788103,41.474566 41.209012,41.31982 40.350001,41.31982 C 37.62549,41.31982 40.125135,42.31982 36.850001,42.31982 C 36.210764,42.31982 35.820119,43.31982 34.350001,43.31982 C 33.281202,43.31982 31.171442,45.31982 28.850001,45.31982 C 26.591845,45.31982 27.209752,42.919405 26.250001,41.31982 C 25.917582,40.765789 25.405268,36.31982 26.350001,36.31982 C 26.950926,36.31982 31.325083,40.744738 31.750001,40.31982 C 36.962578,38.632037 27.626429,36.523343 37.950001,37.81982 z " style="fill:#ffffff;fill-opacity:1;fill-rule:evenodd;stroke:#ffffff;stroke-width:1px;stroke-linecap:butt;stroke-linejoin:miter;stroke-opacity:1;display:inline"/>
<path d="M 42.543212,19.284258 C 41.95248,20.256538 37.111742,23.369223 36.169691,24.919732 C 35.276995,26.38901 35.682852,23.453835 35.492466,23.338162 C 33.504698,22.130443 35.280089,22.039021 33.789692,21.133493 C 33.065783,20.693664 34.153022,16.68377 34.676685,15.821879 C 35.371722,14.677925 35.367841,19.55502 36.321074,20.134181 C 40.037013,19.400438 37.082821,12.818269 41.219914,17.709625 C 41.766221,18.041547 44.319324,13.489765 45.575721,14.253121 C 46.489142,14.808092 42.630689,7.494334 44.614647,8.699737 C 46.544521,9.87228 48.570032,21.202884 48.559677,23.068276 C 46.68971,27.833203 43.383332,19.912883 42.543212,19.284258 z " style="fill:#ffffff;fill-opacity:1;fill-rule:evenodd;stroke:#ffffff;stroke-width:1px;stroke-linecap:butt;stroke-linejoin:miter;stroke-opacity:1;display:inline"/>
<path d="M 11.350001,25.35 C 13.244241,25.340821 12.993069,23.85 14.350001,23.85 C 14.367669,23.85 15.267846,22.85 15.850001,22.85 C 16.112883,22.85 16.243151,21.85 17.850001,21.85 C 19.076298,21.85 24.350001,21.370191 24.350001,22.45 C 24.350001,23.302241 25.350001,22.418624 25.350001,23.85 C 25.350001,24.004326 27.350001,23.330785 27.350001,24.85 C 27.350001,26.531944 26.350001,25.230387 26.350001,26.85 C 26.350001,27.858814 26.720197,27.85 24.350001,27.85 C 22.010795,27.85 20.33835,28.85 17.750001,28.85 C 16.716048,28.85 14.350001,28.313397 14.350001,29.45 C 14.350001,29.819674 12.892409,28.658482 11.350001,28.35 C 11.186571,28.317314 11.350001,28.016667 11.350001,27.85 C 11.350001,27.490989 10.350001,27.809011 10.350001,27.45 C 10.350001,27.340422 9.350001,27.776743 9.350001,26.85 C 9.350001,25.183333 10.350001,28.016667 10.350001,26.35 C 10.350001,25.726169 10.834758,25.865243 11.350001,25.35 z " style="fill:#a48f20;fill-opacity:1;fill-rule:evenodd;stroke:#776c32;stroke-width:1px;stroke-linecap:butt;stroke-linejoin:miter;stroke-opacity:1;display:inline"/>
<path d="M 52.35,28.85 C 52.35,32.9348 49.0348,36.25 44.949999,36.25 C 40.865199,36.25 37.549999,32.9348 37.549999,28.85 C 37.549999,24.7652 40.865199,21.45 44.949999,21.45 C 49.0348,21.45 52.35,24.7652 52.35,28.85 z " style="fill:none;fill-opacity:1;fill-rule:evenodd;stroke:#ff0000;stroke-width:1.5;stroke-linecap:round;stroke-linejoin:miter;stroke-miterlimit:4;stroke-opacity:1;display:inline"/>
<path d="M 44.850001,16.35 C 44.850001,40.35 44.850001,40.35 44.850001,40.35" style="fill:none;fill-rule:evenodd;stroke:#ff0000;stroke-width:1;stroke-linecap:butt;stroke-linejoin:miter;stroke-miterlimit:4;stroke-dasharray:none;stroke-opacity:1;display:inline"/>
<path d="M 56.849976,28.325733 C 32.850026,28.374267 32.850026,28.374267 32.850026,28.374267" style="fill:none;fill-rule:evenodd;stroke:#ff0000;stroke-width:1;stroke-linecap:butt;stroke-linejoin:miter;stroke-miterlimit:4;stroke-dasharray:none;stroke-opacity:1;display:inline"/>
<g style="display:inline" transform="matrix(0.343878,0.1228674,-0.3982604,0.244892,25.811797,1.862374)">
<path d="M 18.945,12.405 C 18.945,8.821 19.906,6.871 25.213,5.942 C 28.816,5.311 33.435,5.232 37.744,5.942 C 41.147,6.504 44.013,9.039 44.013,12.405 L 44.013,24.23 C 44.013,27.698 41.232,30.54 37.744,30.54 L 25.212,30.54 C 20.96,30.54 17.375,34.166 17.375,38.265 L 17.375,43.939 L 13.066,43.939 C 9.422,43.939 7.3,41.311 6.408,37.634 C 5.206,32.694 5.257,29.75 6.408,25.019 C 7.406,20.892 10.596,18.714 14.241,18.714 L 18.944,18.714 L 31.48,18.714 L 31.48,17.135 L 18.945,17.135 L 18.945,12.405 L 18.945,12.405 z " style="fill:#366994"/>
<path d="M 44.012,50.248 C 44.012,53.832 40.901,55.646 37.743,56.553 C 32.994,57.918 29.182,57.709 25.212,56.553 C 21.897,55.587 18.944,53.614 18.944,50.248 L 18.944,38.422 C 18.944,35.02 21.781,32.112 25.212,32.112 L 37.743,32.112 C 41.917,32.112 45.58,28.506 45.58,24.23 L 45.58,18.714 L 50.279,18.714 C 53.927,18.714 55.646,21.425 56.547,25.019 C 57.8,30.01 57.856,33.743 56.547,37.634 C 55.279,41.412 53.923,43.939 50.279,43.939 L 44.011,43.939 L 31.48,43.939 L 31.48,45.517 L 44.011,45.517 L 44.011,50.248 L 44.012,50.248 z " style="fill:#e7b530"/>
<path d="M 22.079,11.62 C 22.079,10.31 23.128,9.252 24.429,9.252 C 25.724,9.252 26.778,10.31 26.778,11.62 C 26.778,12.925 25.724,13.983 24.429,13.983 C 23.128,13.983 22.079,12.925 22.079,11.62 z " style="fill:#ffffff"/>
<path d="M 36.179,51.033 C 36.179,49.728 37.233,48.669 38.529,48.669 C 39.828,48.669 40.879,49.729 40.879,51.033 C 40.879,52.342 39.828,53.4 38.529,53.4 C 37.232,53.4 36.179,52.342 36.179,51.033 z " style="fill:#ffffff"/>
</g>
</g>
</g>
</svg>
