<?xml version="1.0" encoding="UTF-8"?>
<!DOCTYPE svg PUBLIC "-//W3C//DTD SVG 1.1 Tiny//EN" "http://www.w3.org/Graphics/SVG/1.1/DTD/svg11-tiny.dtd">
<svg xmlns="http://www.w3.org/2000/svg" baseProfile="tiny" height="100%" version="1.0" viewBox="0 0 64 64" width="100%">
<metadata/>
<g style="display:inline">
<path d="M 56.200001,30.9 C 56.200001,46.300799 44.283201,58.799999 29.6,58.799999 C 14.9168,58.799999 3,46.300799 3,30.9 C 3,15.4992 14.9168,3 29.6,3 C 44.283201,3 56.200001,15.4992 56.200001,30.9 z " style="fill:#ffffff;fill-opacity:1;fill-rule:evenodd;stroke:#ff0000;stroke-width:6;stroke-linecap:round;stroke-linejoin:miter;stroke-miterlimit:4;stroke-opacity:1" transform="translate(2,0.2000008)"/>
<path d="M 19.367188,20.048352 C 18.835934,20.048357 18.415036,20.229997 18.104492,20.593274 C 17.793943,20.956559 17.63867,21.454605 17.638672,22.087414 C 17.63867,22.716323 17.793943,23.213392 18.104492,23.578625 C 18.415036,23.943861 18.835934,24.126478 19.367188,24.126477 C 19.898433,24.126478 20.319331,23.943861 20.629883,23.578625 C 20.940424,23.213392 21.095697,22.716323 21.095703,22.087414 C 21.095697,21.454605 20.940424,20.956559 20.629883,20.593274 C 20.319331,20.229997 19.898433,20.048357 19.367188,20.048352 L 19.367188,20.048352 z M 21.716797,16.339367 L 21.716797,17.417492 C 21.419916,17.276875 21.120111,17.169453 20.817383,17.095227 C 20.514643,17.021016 20.214839,16.983907 19.917969,16.983899 C 19.136715,16.983907 18.540036,17.247578 18.12793,17.774914 C 17.715818,18.302265 17.480467,19.099139 17.421875,20.165539 C 17.652342,19.825701 17.941404,19.564959 18.289063,19.383313 C 18.636716,19.201678 19.019528,19.110858 19.4375,19.110852 C 20.316401,19.110858 21.010737,19.377459 21.520508,19.910656 C 22.030267,20.443864 22.285149,21.169449 22.285156,22.087414 C 22.285149,22.985854 22.019525,23.706556 21.488281,24.249524 C 20.957026,24.792492 20.249995,25.063977 19.367188,25.063977 C 18.355466,25.063977 17.582029,24.676282 17.046875,23.900891 C 16.511718,23.125502 16.24414,22.00148 16.244141,20.528821 C 16.24414,19.146014 16.572264,18.043476 17.228516,17.221203 C 17.884763,16.398946 18.765622,15.987814 19.871094,15.987805 C 20.167964,15.987814 20.467768,16.017111 20.770508,16.075696 C 21.073237,16.134298 21.388666,16.222189 21.716797,16.339367 L 21.716797,16.339367 z M 26.861328,16.925305 C 26.25195,16.925313 25.793943,17.225117 25.487305,17.824719 C 25.180662,18.424335 25.027342,19.325701 25.027344,20.528821 C 25.027342,21.728042 25.180662,22.627456 25.487305,23.227063 C 25.793943,23.826673 26.25195,24.126478 26.861328,24.126477 C 27.474605,24.126478 27.934565,23.826673 28.241211,23.227063 C 28.547846,22.627456 28.701166,21.728042 28.701172,20.528821 C 28.701166,19.325701 28.547846,18.424335 28.241211,17.824719 C 27.934565,17.225117 27.474605,16.925313 26.861328,16.925305 L 26.861328,16.925305 z M 26.861328,15.987805 C 27.841792,15.987814 28.590815,16.375509 29.108398,17.150891 C 29.62597,17.926288 29.884759,19.052264 29.884766,20.528821 C 29.884759,22.00148 29.62597,23.125502 29.108398,23.900891 C 28.590815,24.676282 27.841792,25.063977 26.861328,25.063977 C 25.880857,25.063977 25.131834,24.676282 24.614258,23.900891 C 24.096679,23.125502 23.83789,22.00148 23.837891,20.528821 C 23.83789,19.052264 24.096679,17.926288 24.614258,17.150891 C 25.131834,16.375509 25.880857,15.987814 26.861328,15.987805 L 26.861328,15.987805 z " style="" transform="matrix(2.5345976,0,0,2.983215,-26.745857,-29.771232)"/>
</g>
</svg>
