<?xml version="1.0" encoding="UTF-8"?>
<!DOCTYPE svg PUBLIC "-//W3C//DTD SVG 1.1 Tiny//EN" "http://www.w3.org/Graphics/SVG/1.1/DTD/svg11-tiny.dtd">
<svg xmlns="http://www.w3.org/2000/svg" baseProfile="tiny" height="100%" version="1.0" viewBox="0 0 64 64" width="100%">
<metadata/>
<g style="display:inline">
<path d="M 56.200001,30.9 C 56.200001,46.300799 44.283201,58.799999 29.6,58.799999 C 14.9168,58.799999 3,46.300799 3,30.9 C 3,15.4992 14.9168,3 29.6,3 C 44.283201,3 56.200001,15.4992 56.200001,30.9 z " style="fill:#ffffff;fill-opacity:1;fill-rule:evenodd;stroke:#ff0000;stroke-width:6;stroke-linecap:round;stroke-linejoin:miter;stroke-miterlimit:4;stroke-opacity:1" transform="translate(2,0.2000008)"/>
<path d="M 16.701172,16.146008 L 21.347656,16.146008 L 21.347656,17.142102 L 17.785156,17.142102 L 17.785156,19.286633 C 17.957029,19.228045 18.128904,19.1841 18.300781,19.154797 C 18.472653,19.125506 18.644528,19.110858 18.816406,19.110852 C 19.792964,19.110858 20.566401,19.378435 21.136719,19.913586 C 21.707025,20.448747 21.992181,21.173355 21.992188,22.087414 C 21.992181,23.028822 21.699212,23.760267 21.113281,24.28175 C 20.527339,24.803235 19.701168,25.063977 18.634766,25.063977 C 18.267575,25.063977 17.893552,25.032727 17.512695,24.970227 C 17.131834,24.907727 16.73828,24.813977 16.332031,24.688977 L 16.332031,23.499524 C 16.683592,23.690931 17.046873,23.833509 17.421875,23.927258 C 17.796873,24.021009 18.193357,24.067884 18.611328,24.067883 C 19.287105,24.067884 19.822261,23.89015 20.216797,23.53468 C 20.611323,23.179213 20.808588,22.696791 20.808594,22.087414 C 20.808588,21.478043 20.611323,20.995621 20.216797,20.640149 C 19.822261,20.284684 19.287105,20.10695 18.611328,20.106946 C 18.294919,20.10695 17.97949,20.142107 17.665039,20.212414 C 17.350584,20.282731 17.029295,20.392106 16.701172,20.540539 L 16.701172,16.146008 z M 26.861328,16.925305 C 26.25195,16.925313 25.793943,17.225117 25.487305,17.824719 C 25.180662,18.424335 25.027342,19.325701 25.027344,20.528821 C 25.027342,21.728042 25.180662,22.627456 25.487305,23.227063 C 25.793943,23.826673 26.25195,24.126478 26.861328,24.126477 C 27.474605,24.126478 27.934565,23.826673 28.241211,23.227063 C 28.547846,22.627456 28.701166,21.728042 28.701172,20.528821 C 28.701166,19.325701 28.547846,18.424335 28.241211,17.824719 C 27.934565,17.225117 27.474605,16.925313 26.861328,16.925305 L 26.861328,16.925305 z M 26.861328,15.987805 C 27.841792,15.987814 28.590815,16.375509 29.108398,17.150891 C 29.62597,17.926288 29.884759,19.052264 29.884766,20.528821 C 29.884759,22.00148 29.62597,23.125502 29.108398,23.900891 C 28.590815,24.676282 27.841792,25.063977 26.861328,25.063977 C 25.880857,25.063977 25.131834,24.676282 24.614258,23.900891 C 24.096679,23.125502 23.83789,22.00148 23.837891,20.528821 C 23.83789,19.052264 24.096679,17.926288 24.614258,17.150891 C 25.131834,16.375509 25.880857,15.987814 26.861328,15.987805 L 26.861328,15.987805 z " style="" transform="matrix(2.5345976,0,0,2.983215,-26.745857,-29.771232)"/>
</g>
</svg>
