<?xml version="1.0" encoding="UTF-8" standalone="no"?>
<!-- Created with Inkscape (http://www.inkscape.org/) -->
<svg
   xmlns:dc="http://purl.org/dc/elements/1.1/"
   xmlns:cc="http://web.resource.org/cc/"
   xmlns:rdf="http://www.w3.org/1999/02/22-rdf-syntax-ns#"
   xmlns:svg="http://www.w3.org/2000/svg"
   xmlns="http://www.w3.org/2000/svg"
   xmlns:sodipodi="http://sodipodi.sourceforge.net/DTD/sodipodi-0.dtd"
   xmlns:inkscape="http://www.inkscape.org/namespaces/inkscape"
   width="100%"
   height="100%"
   viewBox="0 0 64 64"
   id="svg2160"
   sodipodi:version="0.32"
   inkscape:version="0.45.1"
   sodipodi:docbase="E:\Develop\Python\Proj\S60\icons\svg_inp"
   sodipodi:docname="gpslog_sp100.svg"
   inkscape:output_extension="org.inkscape.output.svg.inkscape"
   version="1.0">
  <defs
     id="defs2162" />
  <sodipodi:namedview
     id="base"
     pagecolor="#ffffff"
     bordercolor="#666666"
     borderopacity="1.0"
     inkscape:pageopacity="0.0"
     inkscape:pageshadow="2"
     inkscape:zoom="10"
     inkscape:cx="32"
     inkscape:cy="32"
     inkscape:current-layer="layer1"
     showgrid="true"
     inkscape:document-units="px"
     inkscape:grid-bbox="true"
     inkscape:window-width="1073"
     inkscape:window-height="838"
     inkscape:window-x="66"
     inkscape:window-y="62"
     showguides="true"
     inkscape:guide-bbox="true" />
  <metadata
     id="metadata2165">
    <rdf:RDF>
      <cc:Work
         rdf:about="">
        <dc:format>image/svg+xml</dc:format>
        <dc:type
           rdf:resource="http://purl.org/dc/dcmitype/StillImage" />
        <dc:creator>
          <cc:Agent>
            <dc:title>Thomas Johler</dc:title>
          </cc:Agent>
        </dc:creator>
        <dc:subject>
          <rdf:Bag>
            <rdf:li>S60 Icon</rdf:li>
          </rdf:Bag>
        </dc:subject>
        <dc:description>Width and height as percent.
Absolute size as viewbox!</dc:description>
      </cc:Work>
    </rdf:RDF>
  </metadata>
  <g
     id="layer1"
     inkscape:label="Layer 1"
     inkscape:groupmode="layer"
     style="display:inline">
    <path
       transform="translate(2,0.2000008)"
       style="fill:#ffffff;fill-opacity:1;fill-rule:evenodd;stroke:#ff0000;stroke-width:6;stroke-linecap:round;stroke-linejoin:miter;stroke-miterlimit:4;stroke-opacity:1"
       d="M 56.200001,30.9 C 56.200001,46.300799 44.283201,58.799999 29.6,58.799999 C 14.9168,58.799999 3,46.300799 3,30.9 C 3,15.4992 14.9168,3 29.6,3 C 44.283201,3 56.200001,15.4992 56.200001,30.9 z "
       id="path2412" />
    <path
       transform="matrix(1.9432737,0,0,2.2872282,-21.356195,-15.567758)"
       style=""
       d="M 16.894531,23.897961 L 18.828125,23.897961 L 18.828125,17.224133 L 16.724609,17.646008 L 16.724609,16.567883 L 18.816406,16.146008 L 20,16.146008 L 20,23.897961 L 21.933594,23.897961 L 21.933594,24.894055 L 16.894531,24.894055 L 16.894531,23.897961 z M 26.861328,16.925305 C 26.25195,16.925313 25.793943,17.225117 25.487305,17.824719 C 25.180662,18.424335 25.027342,19.325701 25.027344,20.528821 C 25.027342,21.728042 25.180662,22.627456 25.487305,23.227063 C 25.793943,23.826673 26.25195,24.126478 26.861328,24.126477 C 27.474605,24.126478 27.934565,23.826673 28.241211,23.227063 C 28.547846,22.627456 28.701166,21.728042 28.701172,20.528821 C 28.701166,19.325701 28.547846,18.424335 28.241211,17.824719 C 27.934565,17.225117 27.474605,16.925313 26.861328,16.925305 L 26.861328,16.925305 z M 26.861328,15.987805 C 27.841792,15.987814 28.590815,16.375509 29.108398,17.150891 C 29.62597,17.926288 29.884759,19.052264 29.884766,20.528821 C 29.884759,22.00148 29.62597,23.125502 29.108398,23.900891 C 28.590815,24.676282 27.841792,25.063977 26.861328,25.063977 C 25.880857,25.063977 25.131834,24.676282 24.614258,23.900891 C 24.096679,23.125502 23.83789,22.00148 23.837891,20.528821 C 23.83789,19.052264 24.096679,17.926288 24.614258,17.150891 C 25.131834,16.375509 25.880857,15.987814 26.861328,15.987805 L 26.861328,15.987805 z M 34.501953,16.925305 C 33.892575,16.925313 33.434568,17.225117 33.12793,17.824719 C 32.821287,18.424335 32.667967,19.325701 32.667969,20.528821 C 32.667967,21.728042 32.821287,22.627456 33.12793,23.227063 C 33.434568,23.826673 33.892575,24.126478 34.501953,24.126477 C 35.11523,24.126478 35.57519,23.826673 35.881836,23.227063 C 36.188471,22.627456 36.341791,21.728042 36.341797,20.528821 C 36.341791,19.325701 36.188471,18.424335 35.881836,17.824719 C 35.57519,17.225117 35.11523,16.925313 34.501953,16.925305 L 34.501953,16.925305 z M 34.501953,15.987805 C 35.482417,15.987814 36.23144,16.375509 36.749023,17.150891 C 37.266595,17.926288 37.525384,19.052264 37.525391,20.528821 C 37.525384,22.00148 37.266595,23.125502 36.749023,23.900891 C 36.23144,24.676282 35.482417,25.063977 34.501953,25.063977 C 33.521482,25.063977 32.772459,24.676282 32.254883,23.900891 C 31.737304,23.125502 31.478515,22.00148 31.478516,20.528821 C 31.478515,19.052264 31.737304,17.926288 32.254883,17.150891 C 32.772459,16.375509 33.521482,15.987814 34.501953,15.987805 L 34.501953,15.987805 z "
       id="flowRoot3401" />
  </g>
</svg>
